<svg width="50" height="50" viewBox="0 0 50 50" fill="none" xmlns="http://www.w3.org/2000/svg">
<g clip-path="url(#clip0_25_204)">
<path fill-rule="evenodd" clip-rule="evenodd" d="M11.034 25.9811L24.7024 20.5137V43.7501H20.4482V38.2827H15.2881V43.7501H11.0339L11.034 25.9811ZM13.4247 28.156H15.4741V29.1812H13.4247V28.156ZM16.8434 28.156H18.8929V29.1812H16.8434V28.156ZM20.2622 28.156H22.3117V29.1812H20.2622V28.156ZM13.4247 31.3399H15.4742V32.3651H13.4247V31.3399ZM16.8434 31.3399H18.8929V32.3651H16.8434V31.3399ZM20.2622 31.3399H22.3117V32.3651H20.2622V31.3399ZM13.4247 34.5238H15.4742V35.549H13.4247V34.5238ZM16.8434 34.5238H18.8929V35.549H16.8434V34.5238ZM20.2622 34.5238H22.3117V35.549H20.2622V34.5238ZM20.2622 24.9722H22.3117V25.9973H20.2622V24.9722Z" fill="#FF7A00"/>
<path fill-rule="evenodd" clip-rule="evenodd" d="M38.9661 16.4131H25.2977V43.75H29.5519V36.2323H34.712V43.75H38.9662L38.9661 16.4131ZM27.6884 19.8302H29.7379V20.8553H27.6884V19.8302ZM31.1072 19.8302H33.1567V20.8553H31.1072V19.8302ZM34.5259 19.8302H36.5754V20.8553H34.5259V19.8302ZM27.6884 23.8824H29.7379V24.9076H27.6884V23.8824ZM31.1072 23.8824H33.1567V24.9076H31.1072V23.8824ZM34.526 23.8824H36.5754V24.9076H34.526V23.8824ZM27.6884 27.9347H29.7379V28.9599H27.6884V27.9347ZM31.1072 27.9347H33.1567V28.9599H31.1072V27.9347ZM34.526 27.9347H36.5754V28.9599H34.526V27.9347ZM27.6885 31.987H29.7379V33.0122H27.6885V31.987ZM31.1072 31.987H33.1567V33.0122H31.1072V31.987ZM34.526 31.987H36.5754V33.0122H34.526V31.987Z" fill="#424242"/>
<path d="M35.549 12.3126H28.7147V16.8583H35.549V12.3126Z" fill="#424242"/>
<path d="M32.7273 9.94121C32.7273 9.72289 32.5503 9.5459 32.332 9.5459C32.1137 9.5459 31.9367 9.72289 31.9367 9.94121L31.9366 12.3126C31.9366 12.5309 32.1136 12.7079 32.3319 12.7079C32.5502 12.7079 32.7272 12.5309 32.7272 12.3126L32.7273 9.94121Z" fill="#424242"/>
<path d="M28.7194 7.93007L31.8182 6.33674C31.9082 6.28186 32.0138 6.25017 32.127 6.25C32.4557 6.2496 32.7226 6.51572 32.723 6.84447L32.7247 9.88737C32.7341 9.98968 32.7171 10.0957 32.6701 10.1953C32.5298 10.4926 32.175 10.6198 31.8777 10.4794L28.7728 9.01192C28.643 8.96082 28.5304 8.86417 28.4616 8.73031C28.3113 8.43798 28.4271 8.08039 28.7194 7.93007Z" fill="#424242"/>
</g>
<defs>
<clipPath id="clip0_25_204">
<rect width="50" height="50" fill="white"/>
</clipPath>
</defs>
</svg>
