<svg width="50" height="51" viewBox="0 0 50 51" fill="none" xmlns="http://www.w3.org/2000/svg">
<g clip-path="url(#clip0_24_4)">
<path fill-rule="evenodd" clip-rule="evenodd" d="M14.7774 23.8844L13.9459 24.3566C12.1843 24.6625 10.4137 26.6212 8.80626 27.1133C6.14563 23.4968 5.70704 18.6009 7.54548 12.3722C13.9808 13.7983 17.882 16.6566 19.7679 20.7315C18.4628 21.8751 15.9434 22.4979 14.7774 23.8844Z" fill="#FF7A00"/>
<path d="M24.6636 43.7098C24.8879 44.1004 25.3838 44.2337 25.7712 44.0074C26.1586 43.7812 26.2907 43.2811 26.0663 42.8905L12.8831 19.8647C12.6588 19.4741 12.1628 19.3408 11.7755 19.567C11.3882 19.7933 11.256 20.2934 11.4804 20.684L24.6636 43.7098Z" fill="#FF7A00"/>
<path fill-rule="evenodd" clip-rule="evenodd" d="M20.1121 43.0772H15.9055V35.7528C15.9055 34.0127 16.3189 32.739 17.0971 31.6932L23.6149 43.0772H22.9699L20.9521 43.0772L20.1121 43.0772ZM35.4237 27.174L36.2636 27.6137C36.9551 27.9745 37.6336 28.3292 38.2814 28.6935L39.1213 29.184C41.6506 30.7251 43.5299 32.548 43.5299 35.7528V43.0772H39.1213H38.2814H36.2636H35.4237H26.7521C26.7259 42.9103 26.6697 42.7455 26.5811 42.5907L19.2357 29.7611C19.5122 29.5764 19.8044 29.3946 20.1122 29.2134L20.9521 28.7386C21.574 28.3994 22.2476 28.0542 22.9699 27.6871L23.8098 27.2604C24.1345 27.0951 24.468 26.9247 24.81 26.7478C26.1698 27.9834 27.8713 28.7181 29.7178 28.7181C31.5643 28.7181 33.2658 27.9834 34.6256 26.7478C34.8918 26.8923 35.1581 27.034 35.4237 27.174Z" fill="#424242"/>
<path d="M39.2714 15.33H20.1641V17.6573H39.2714V15.33Z" fill="#424242"/>
<path d="M27.5294 14.6948V7.776C25.8191 8.14529 24.3157 8.96182 23.2228 10.2078C22.2155 11.356 21.5632 12.8571 21.425 14.6948H27.5294ZM38.0104 14.6948C37.8723 12.8571 37.22 11.356 36.2127 10.2078C35.1198 8.96182 33.6164 8.14532 31.9061 7.776V14.6948H38.0104Z" fill="#424242"/>
<path d="M37.5246 17.7367C37.5681 17.3901 37.3246 17.0734 36.9808 17.0296C36.637 16.9857 36.323 17.2313 36.2795 17.5779C36.0097 19.726 35.0842 22.0569 33.742 23.7601C32.6264 25.1755 31.232 26.1381 29.7178 26.1381C28.1921 26.1381 26.7613 25.1621 25.6117 23.7296C24.2461 22.0278 23.2927 19.7113 23.0248 17.5779C22.9813 17.2312 22.6673 16.9857 22.3235 17.0295C21.9797 17.0734 21.7362 17.39 21.7797 17.7367C22.0759 20.0953 23.1272 22.6529 24.6324 24.5285C26.0069 26.2414 27.7701 27.4085 29.7178 27.4085C31.6581 27.4085 33.3849 26.2511 34.7262 24.5492C36.207 22.6703 37.2275 20.1019 37.5246 17.7367Z" fill="#424242"/>
<path fill-rule="evenodd" clip-rule="evenodd" d="M28.9811 6.30249H30.4544C30.9064 6.30249 31.2762 6.68236 31.2762 7.14648V15.4962H28.1593V7.14648C28.1593 6.68225 28.5291 6.30249 28.9811 6.30249Z" fill="#424242"/>
</g>
<defs>
<clipPath id="clip0_24_4">
<rect width="50" height="50.4202" fill="white"/>
</clipPath>
</defs>
</svg>
