<svg width="50" height="50" viewBox="0 0 50 50" fill="none" xmlns="http://www.w3.org/2000/svg">
<g clip-path="url(#clip0_24_122)">
<path d="M6.55688 15.6087C6.40708 15.7679 6.41472 16.0185 6.57395 16.1683C6.73315 16.3181 6.9837 16.3104 7.1335 16.1512L13.971 9.13845L40.6912 16.5175C40.9009 16.58 41.1216 16.4606 41.1841 16.2509C41.2466 16.0412 41.1272 15.8205 40.9175 15.758L13.964 8.30913C13.8091 8.26302 13.6483 8.31602 13.5496 8.4313L6.55688 15.6087Z" fill="#FF7A00"/>
<path d="M42.5167 18.2118C42.5167 17.9926 42.339 17.8149 42.1199 17.8149C41.9007 17.8149 41.723 17.9926 41.723 18.2118V29.2163C41.723 29.4354 41.9007 29.6131 42.1199 29.6131C42.339 29.6131 42.5167 29.4354 42.5167 29.2163V18.2118Z" fill="#FF7A00"/>
<path d="M41.4157 31.1074C41.2608 30.9525 41.0095 30.9525 40.8546 31.1074C40.6997 31.2623 40.6997 31.5136 40.8546 31.6686C41.1808 31.9948 41.6084 32.1579 42.0359 32.1579C42.4634 32.1579 42.891 31.9948 43.2171 31.6686C43.5433 31.3424 43.7065 30.9148 43.7065 30.4873C43.7065 30.0598 43.5433 29.6322 43.2171 29.306C43.0749 29.1637 42.9077 29.049 42.7246 28.966C42.544 28.8841 42.3476 28.8344 42.1447 28.821C41.9264 28.8073 41.7383 28.9732 41.7246 29.1915C41.7109 29.4098 41.8768 29.5979 42.095 29.6116C42.2002 29.6185 42.3032 29.6448 42.3991 29.6883C42.4928 29.7308 42.58 29.7911 42.656 29.8671C42.8272 30.0383 42.9128 30.2628 42.9128 30.4873C42.9128 30.7118 42.8272 30.9362 42.656 31.1074C42.4848 31.2786 42.2603 31.3642 42.0359 31.3642C41.8115 31.3642 41.5869 31.2786 41.4157 31.1074Z" fill="#FF7A00"/>
<path d="M40.4897 27.9852H43.7501V28.7789H40.4897V27.9852Z" fill="#FF7A00"/>
<path d="M12.3273 12.0047H15.4656C15.7943 12.0047 16.0608 12.2712 16.0608 12.6V19.5043C16.0608 19.833 15.7943 20.0995 15.4656 20.0995H12.3273C11.9986 20.0995 11.7321 19.833 11.7321 19.5043V12.6C11.7321 12.2712 11.9986 12.0047 12.3273 12.0047ZM14.8704 13.1952H12.9225V18.909H14.8704V13.1952ZM16.0608 26.4086V41.6422C16.0608 41.9709 15.7943 42.2374 15.4656 42.2374H12.3273C11.9986 42.2374 11.7321 41.9709 11.7321 41.6422V26.4086C11.7321 26.0799 11.9986 25.8134 12.3273 25.8134H15.4656C15.7943 25.8134 16.0608 26.0799 16.0608 26.4086ZM14.8704 41.0469V27.0038H12.9225V41.0469H14.8704Z" fill="#424242"/>
<path d="M37.7376 15.88V19.5043C37.7376 19.833 37.4711 20.0995 37.1424 20.0995H6.84525C6.5165 20.0995 6.25 19.833 6.25 19.5043V15.88C6.25 15.5512 6.5165 15.2847 6.84525 15.2847H37.1424C37.4711 15.2847 37.7376 15.5512 37.7376 15.88ZM36.5472 18.909V16.4752H7.44048V18.909H36.5472Z" fill="#424242"/>
<path d="M15.8423 13.9676C16.0953 13.7595 16.1317 13.3858 15.9237 13.1328C15.7157 12.8798 15.3419 12.8434 15.089 13.0514L11.9506 15.6361C11.6977 15.8441 11.6612 16.2178 11.8693 16.4708C12.0773 16.7238 12.451 16.7602 12.704 16.5522L15.8423 13.9676Z" fill="#424242"/>
<path d="M17.1969 15.5428C17.0108 15.2731 16.6412 15.2055 16.3715 15.3916C16.1018 15.5778 16.0342 15.9474 16.2204 16.2171L18.7335 19.8414C18.9197 20.1111 19.2893 20.1787 19.5589 19.9926C19.8286 19.8064 19.8962 19.4368 19.7101 19.1671L17.1969 15.5428Z" fill="#424242"/>
<path d="M22.2232 16.2171C22.4094 15.9474 22.3418 15.5778 22.0721 15.3916C21.8024 15.2055 21.4328 15.2731 21.2466 15.5428L18.7335 19.1671C18.5474 19.4368 18.615 19.8064 18.8847 19.9926C19.1544 20.1787 19.5239 20.1111 19.7101 19.8414L22.2232 16.2171Z" fill="#424242"/>
<path d="M22.2232 15.5428C22.037 15.2731 21.6674 15.2055 21.3978 15.3916C21.1281 15.5778 21.0604 15.9474 21.2466 16.2171L23.7597 19.8414C23.9459 20.1111 24.3155 20.1787 24.5852 19.9926C24.8548 19.8064 24.9225 19.4368 24.7363 19.1671L22.2232 15.5428Z" fill="#424242"/>
<path d="M27.2495 16.2171C27.4357 15.9474 27.368 15.5778 27.0983 15.3916C26.8287 15.2055 26.4591 15.2731 26.2729 15.5428L23.7598 19.1671C23.5736 19.4368 23.6413 19.8064 23.9109 19.9926C24.1806 20.1787 24.5502 20.1111 24.7364 19.8414L27.2495 16.2171Z" fill="#424242"/>
<path d="M27.2496 15.5428C27.0634 15.2731 26.6938 15.2055 26.4241 15.3916C26.1545 15.5778 26.0868 15.9474 26.273 16.2171L28.7861 19.8414C28.9723 20.1111 29.3419 20.1787 29.6115 19.9926C29.8812 19.8064 29.9489 19.4368 29.7627 19.1671L27.2496 15.5428Z" fill="#424242"/>
<path d="M32.2757 16.2171C32.4619 15.9474 32.3942 15.5778 32.1246 15.3916C31.8549 15.2055 31.4853 15.2731 31.2991 15.5428L28.786 19.1671C28.5999 19.4368 28.6675 19.8064 28.9372 19.9926C29.2069 20.1787 29.5764 20.1111 29.7626 19.8414L32.2757 16.2171Z" fill="#424242"/>
<path d="M32.2757 15.5428C32.0895 15.2731 31.7199 15.2055 31.4503 15.3916C31.1806 15.5778 31.1129 15.9474 31.2991 16.2171L33.8122 19.8414C33.9984 20.1111 34.368 20.1787 34.6377 19.9926C34.9073 19.8064 34.975 19.4368 34.7888 19.1671L32.2757 15.5428Z" fill="#424242"/>
<path d="M37.3019 16.2171C37.4881 15.9474 37.4204 15.5778 37.1507 15.3916C36.881 15.2055 36.5115 15.2731 36.3253 15.5428L33.8122 19.1671C33.626 19.4368 33.6936 19.8064 33.9633 19.9926C34.233 20.1787 34.6025 20.1111 34.7887 19.8414L37.3019 16.2171Z" fill="#424242"/>
<path d="M15.089 29.4754C15.3419 29.6834 15.7157 29.647 15.9237 29.394C16.1317 29.141 16.0953 28.7672 15.8423 28.5592L12.704 25.9746C12.451 25.7666 12.0773 25.803 11.8693 26.056C11.6612 26.3089 11.6977 26.6827 11.9506 26.8907L15.089 29.4754Z" fill="#424242"/>
<path d="M15.8423 29.4754C16.0953 29.2674 16.1317 28.8937 15.9237 28.6407C15.7157 28.3877 15.3419 28.3513 15.089 28.5593L11.9506 31.1439C11.6977 31.352 11.6612 31.7257 11.8693 31.9787C12.0773 32.2317 12.451 32.2681 12.704 32.0601L15.8423 29.4754Z" fill="#424242"/>
<path d="M15.089 34.6447C15.3419 34.8527 15.7157 34.8163 15.9237 34.5633C16.1317 34.3103 16.0953 33.9366 15.8423 33.7285L12.704 31.1439C12.451 30.9359 12.0773 30.9723 11.8693 31.2253C11.6612 31.4782 11.6977 31.852 11.9506 32.06L15.089 34.6447Z" fill="#424242"/>
<path d="M15.8423 34.6446C16.0953 34.4366 16.1317 34.0629 15.9237 33.8099C15.7157 33.5569 15.3419 33.5205 15.089 33.7285L11.9506 36.3131C11.6977 36.5211 11.6612 36.8949 11.8693 37.1479C12.0773 37.4009 12.451 37.4372 12.704 37.2293L15.8423 34.6446Z" fill="#424242"/>
<path d="M15.089 39.8138C15.3419 40.0219 15.7157 39.9854 15.9237 39.7325C16.1317 39.4795 16.0953 39.1058 15.8423 38.8977L12.704 36.3131C12.451 36.1051 12.0773 36.1415 11.8693 36.3945C11.6612 36.6475 11.6977 37.0212 11.9506 37.2292L15.089 39.8138Z" fill="#424242"/>
<path d="M14.4586 8.66425L16.0085 12.3707C16.1353 12.674 15.9931 13.0223 15.6899 13.1491C15.6111 13.1821 15.5293 13.1967 15.449 13.1952H12.3327C12.004 13.1952 11.7374 12.9287 11.7374 12.6C11.7374 12.5054 11.7595 12.416 11.7988 12.3366L13.348 8.63303C13.4749 8.32977 13.8232 8.1849 14.1265 8.31177C14.2885 8.37956 14.4048 8.51062 14.4586 8.66425Z" fill="#424242"/>
<path d="M12.1706 16.2171C12.3568 15.9474 12.2892 15.5778 12.0195 15.3916C11.7498 15.2055 11.3803 15.2731 11.1941 15.5428L8.68094 19.1671C8.49474 19.4368 8.56242 19.8064 8.83209 19.9926C9.10176 20.1787 9.47135 20.1111 9.65751 19.8414L12.1706 16.2171Z" fill="#424242"/>
<path d="M37.1111 17.0969C36.7824 17.0969 36.5159 17.3634 36.5159 17.6921C36.5159 18.0208 36.7824 18.2874 37.1111 18.2874H38.9293C39.258 18.2874 39.5245 18.0208 39.5245 17.6921C39.5245 17.3634 39.258 17.0969 38.9293 17.0969H37.1111Z" fill="#424242"/>
<path d="M15.8144 39.8348C16.0789 39.6422 16.1372 39.2716 15.9446 39.0071C15.752 38.7426 15.3814 38.6842 15.1168 38.8769L11.9785 41.1632C11.714 41.3558 11.6557 41.7264 11.8483 41.9909C12.0409 42.2554 12.4115 42.3137 12.676 42.1212L15.8144 39.8348Z" fill="#424242"/>
<path d="M7.34534 15.559C7.16815 15.283 6.80064 15.2028 6.52457 15.38C6.24847 15.5572 6.16833 15.9247 6.34553 16.2008L8.66955 19.8252C8.84675 20.1012 9.21426 20.1814 9.49036 20.0042C9.76643 19.827 9.84659 19.4595 9.6694 19.1834L7.34534 15.559Z" fill="#424242"/>
<path fill-rule="evenodd" clip-rule="evenodd" d="M12.5971 24.4163V21.4966H15.1957V24.4163H12.5971ZM15.4656 18.909H12.3272H10.4443C10.1155 18.909 9.849 19.1755 9.849 19.5042V26.4086C9.849 26.7373 10.1155 27.0039 10.4443 27.0039H12.3272H13.0208H15.4656H17.3486C17.6773 27.0039 17.9438 26.7373 17.9438 26.4086V19.5042C17.9438 19.1755 17.6773 18.909 17.3486 18.909H15.4656Z" fill="#424242"/>
<path d="M40.643 19.6041C41.699 19.6041 42.555 18.7481 42.555 17.6921C42.555 16.6361 41.699 15.78 40.643 15.78C39.587 15.78 38.731 16.6361 38.731 17.6921C38.731 18.7481 39.587 19.6041 40.643 19.6041Z" fill="#424242"/>
</g>
<defs>
<clipPath id="clip0_24_122">
<rect width="50" height="50" fill="white"/>
</clipPath>
</defs>
</svg>
