<svg width="30" height="30" viewBox="0 0 30 30" fill="none" xmlns="http://www.w3.org/2000/svg">
<path fill-rule="evenodd" clip-rule="evenodd" d="M4.49951 7.50098C4.49951 7.10315 4.65755 6.72163 4.93885 6.44031C5.22015 6.15901 5.60169 6.00098 5.99951 6.00098H23.9995C24.3974 6.00098 24.7789 6.15901 25.0601 6.44031C25.3415 6.72163 25.4995 7.10315 25.4995 7.50098C25.4995 7.8988 25.3415 8.28034 25.0601 8.56164C24.7789 8.84294 24.3974 9.00098 23.9995 9.00098H5.99951C5.60169 9.00098 5.22015 8.84294 4.93885 8.56164C4.65755 8.28034 4.49951 7.8988 4.49951 7.50098Z" fill="white"/>
<path fill-rule="evenodd" clip-rule="evenodd" d="M4.49951 15.001C4.49951 14.6031 4.65755 14.2216 4.93885 13.9404C5.22015 13.659 5.60169 13.501 5.99951 13.501H23.9995C24.3974 13.501 24.7789 13.659 25.0601 13.9404C25.3415 14.2216 25.4995 14.6031 25.4995 15.001C25.4995 15.3987 25.3415 15.7804 25.0601 16.0616C24.7789 16.343 24.3974 16.501 23.9995 16.501H5.99951C5.60169 16.501 5.22015 16.343 4.93885 16.0616C4.65755 15.7804 4.49951 15.3987 4.49951 15.001Z" fill="white"/>
<path fill-rule="evenodd" clip-rule="evenodd" d="M4.49951 22.501C4.49951 22.1031 4.65755 21.7216 4.93885 21.4404C5.22015 21.159 5.60169 21.001 5.99951 21.001H23.9995C24.3974 21.001 24.7789 21.159 25.0601 21.4404C25.3415 21.7216 25.4995 22.1031 25.4995 22.501C25.4995 22.8987 25.3415 23.2804 25.0601 23.5616C24.7789 23.843 24.3974 24.001 23.9995 24.001H5.99951C5.60169 24.001 5.22015 23.843 4.93885 23.5616C4.65755 23.2804 4.49951 22.8987 4.49951 22.501Z" fill="white"/>
</svg>
