<svg width="24" height="24" viewBox="0 0 24 24" fill="none" xmlns="http://www.w3.org/2000/svg">
<g clip-path="url(#clip0_19_278)">
<path d="M23.9769 7.056C23.9206 5.781 23.7144 4.90425 23.4189 4.1445C23.1144 3.33825 22.6456 2.616 22.0306 2.016C21.4306 1.40625 20.7039 0.933 19.9066 0.633C19.1424 0.3375 18.2709 0.13125 16.9951 0.075C15.7104 0.01425 15.3024 0 12.0444 0C8.78636 0 8.37836 0.01425 7.09811 0.0705C5.82311 0.12675 4.94636 0.333 4.18661 0.6285C3.38036 0.933 2.65811 1.40175 2.05811 2.016C1.44836 2.616 0.975114 3.34275 0.675114 4.14C0.379614 4.90425 0.173364 5.7765 0.117114 7.0515C0.0563643 8.33625 0.0421143 8.74425 0.0421143 12.0023C0.0421143 15.2603 0.0563643 15.6683 0.112614 16.9485C0.168864 18.2235 0.375114 19.1003 0.670614 19.86C0.975114 20.6663 1.44911 21.3885 2.05811 21.9885C2.65811 22.5983 3.38486 23.0715 4.18211 23.3715C4.94636 23.667 5.81861 23.8733 7.09361 23.9295C8.37311 23.9858 8.78111 24 12.0399 24C15.2986 24 15.7059 23.9858 16.9861 23.9295C18.2611 23.8733 19.1379 23.667 19.8976 23.3715C21.5109 22.7483 22.7859 21.4725 23.4091 19.86C23.7046 19.0957 23.9109 18.2235 23.9671 16.9485C24.0234 15.6683 24.0376 15.261 24.0376 12.0023C24.0376 8.7435 24.0331 8.33625 23.9769 7.056ZM21.8154 16.8547C21.7636 18.027 21.5671 18.66 21.4029 19.0815C20.9994 20.127 20.1699 20.9565 19.1244 21.36C18.7021 21.5243 18.0646 21.7208 16.8976 21.7725C15.6316 21.8288 15.2521 21.843 12.0496 21.843C8.84711 21.843 8.46311 21.8288 7.20161 21.7725C6.02936 21.7208 5.39636 21.5243 4.97486 21.36C4.45436 21.168 3.98111 20.8627 3.59636 20.4645C3.19811 20.0752 2.89286 19.6065 2.70086 19.086C2.53661 18.6637 2.34011 18.0263 2.28836 16.8592C2.23211 15.5933 2.21786 15.2137 2.21786 12.0112C2.21786 8.80875 2.23211 8.42475 2.28836 7.16325C2.34011 5.991 2.53661 5.358 2.70086 4.9365C2.89286 4.416 3.19811 3.94275 3.60086 3.558C3.99011 3.15975 4.45886 2.8545 4.97936 2.6625C5.40161 2.49825 6.03911 2.30175 7.20611 2.25C8.47211 2.19375 8.85161 2.1795 12.0541 2.1795C15.2611 2.1795 15.6406 2.19375 16.9021 2.25C18.0744 2.30175 18.7074 2.49825 19.1289 2.6625C19.6494 2.8545 20.1226 3.159 20.5074 3.558C20.9056 3.94725 21.2109 4.416 21.4029 4.9365C21.5671 5.35875 21.7636 5.99625 21.8154 7.16325C21.8716 8.42925 21.8859 8.80875 21.8859 12.0112C21.8859 15.2137 21.8716 15.5887 21.8154 16.8547Z" fill="white"/>
<path d="M12.0443 5.83728C8.64077 5.83728 5.87927 8.59878 5.87927 12.0023C5.87927 15.4058 8.64077 18.1673 12.0443 18.1673C15.4485 18.1673 18.2093 15.4058 18.2093 12.0023C18.2093 8.59878 15.4478 5.83728 12.0443 5.83728ZM12.0443 16.0013C9.83627 16.0013 8.04527 14.2103 8.04527 12.0023C8.04527 9.79428 9.83627 8.00328 12.0443 8.00328C14.253 8.00328 16.0433 9.79428 16.0433 12.0023C16.0433 14.2103 14.2523 16.0013 12.0443 16.0013Z" fill="white"/>
<path d="M19.893 5.59349C19.893 6.38849 19.2488 7.03274 18.4538 7.03274C17.6588 7.03274 17.0145 6.38849 17.0145 5.59349C17.0145 4.79849 17.6588 4.15424 18.4538 4.15424C19.2488 4.15424 19.893 4.79849 19.893 5.59349Z" fill="white"/>
</g>
<defs>
<clipPath id="clip0_19_278">
<rect width="24" height="24" fill="white"/>
</clipPath>
</defs>
</svg>
