<svg aria-hidden="true" style="position:absolute;width:0;height:0;overflow:hidden" xmlns="http://www.w3.org/2000/svg"><defs><symbol id="icon-Building" viewBox="0 0 32 32"><path fill="#ff7a00" style="fill:var(--color1, #ff7a00)" d="M7.062 16.628V28h2.723v-3.499h3.302V28h2.723V13.129l-8.748 3.499zm1.53 1.392h1.312v.656H8.592v-.656zm2.188 0h1.312v.656H10.78v-.656zm2.188 0h1.312v.656h-1.312v-.656zm-4.376 2.038h1.312v.656H8.592v-.656zm2.188 0h1.312v.656H10.78v-.656zm2.188 0h1.312v.656h-1.312v-.656zm-4.376 2.037h1.312v.656H8.592v-.656zm2.188 0h1.312v.656H10.78v-.656zm2.188 0h1.312v.656h-1.312v-.656zm0-6.113h1.312v.656h-1.312v-.656z"/><path fill="#424242" style="fill:var(--color2, #424242)" d="M24.938 10.504H16.19V28h2.723v-4.811h3.302V28h2.723V10.504zm-7.217 2.187h1.312v.656h-1.312v-.656zm2.188 0h1.312v.656h-1.312v-.656zm2.188 0h1.312v.656h-1.312v-.656zm-4.376 2.594h1.312v.656h-1.312v-.656zm2.188 0h1.312v.656h-1.312v-.656zm2.188 0h1.312v.656h-1.312v-.656zm-4.376 2.593h1.312v.656h-1.312v-.656zm2.188 0h1.312v.656h-1.312v-.656zm2.188 0h1.312v.656h-1.312v-.656zm-4.376 2.594h1.312v.656h-1.312v-.656zm2.188 0h1.312v.656h-1.312v-.656zm2.188 0h1.312v.656h-1.312v-.656z"/><path fill="#424242" style="fill:var(--color2, #424242)" d="M22.751 7.88h-4.374v2.909h4.374V7.88z"/><path fill="#424242" style="fill:var(--color2, #424242)" d="M20.945 6.362a.253.253 0 1 0-.506 0V7.88a.253.253 0 1 0 .506 0V6.362z"/><path fill="#424242" style="fill:var(--color2, #424242)" d="m18.38 5.075 1.983-1.02a.38.38 0 0 1 .579.324l.001 1.947a.381.381 0 0 1-.542.379l-1.987-.939a.38.38 0 0 1-.034-.692z"/></symbol><symbol id="icon-Construction-Worker" viewBox="0 0 31 32"><path fill="#ff7a00" style="fill:var(--color1, #ff7a00)" d="m9.272 14.986-.522.296c-1.105.192-2.216 1.421-3.225 1.73-1.669-2.269-1.945-5.341-.791-9.249 4.038.895 6.486 2.688 7.669 5.245-.819.718-2.4 1.108-3.131 1.978z"/><path fill="#ff7a00" style="fill:var(--color1, #ff7a00)" d="M15.475 27.426c.141.245.452.329.695.187s.326-.456.185-.701L8.083 12.464c-.141-.245-.452-.329-.695-.187s-.326.456-.185.701l8.272 14.448z"/><path fill="#424242" style="fill:var(--color2, #424242)" d="M12.619 27.029H9.98v-4.596c0-1.092.259-1.891.748-2.547l4.09 7.143H12.62zm9.608-9.979.527.276c.434.226.86.449 1.266.678l.527.308c1.587.967 2.766 2.111 2.766 4.122v4.596H16.786a.89.89 0 0 0-.107-.305l-4.609-8.05c.174-.116.357-.23.55-.344l.527-.298c.39-.213.813-.429 1.266-.66l.527-.268.628-.322c.853.775 1.921 1.236 3.079 1.236s2.226-.461 3.079-1.236c.167.091.334.18.501.267zM24.641 9.619H12.652v1.46h11.989v-1.46zM17.273 9.22V4.879c-1.073.232-2.016.744-2.702 1.526-.632.72-1.041 1.662-1.128 2.815h3.83zm6.577 0c-.087-1.153-.496-2.095-1.128-2.815-.686-.782-1.629-1.294-2.702-1.526V9.22h3.83z"/><path fill="#424242" style="fill:var(--color2, #424242)" d="M23.545 11.129a.394.394 0 1 0-.781-.1c-.169 1.348-.75 2.81-1.592 3.879-.7.888-1.575 1.492-2.525 1.492-.957 0-1.855-.612-2.576-1.511-.857-1.068-1.455-2.521-1.623-3.86a.393.393 0 1 0-.781.1c.186 1.48.845 3.085 1.79 4.262.862 1.075 1.969 1.807 3.191 1.807 1.217 0 2.301-.726 3.143-1.794.929-1.179 1.569-2.79 1.756-4.274zM18.184 3.954h.924c.284 0 .516.238.516.53v5.239h-1.956V4.484c0-.291.232-.53.516-.53z"/></symbol><symbol id="icon-Crane" viewBox="0 0 32 32"><path fill="#ff7a00" style="fill:var(--color1, #ff7a00)" d="M4.196 9.99a.253.253 0 1 0 .369.347l4.376-4.488 17.101 4.723c.134.04.275-.036.315-.171s-.036-.275-.171-.315L8.936 5.319a.254.254 0 0 0-.265.078L4.196 9.991zM27.211 11.656a.254.254 0 0 0-.508 0v7.043a.254.254 0 0 0 .508 0v-7.043z"/><path fill="#ff7a00" style="fill:var(--color1, #ff7a00)" d="M26.506 19.909a.254.254 0 0 0-.359.359c.209.209.482.313.756.313a1.064 1.064 0 0 0 1.069-1.069 1.064 1.064 0 0 0-.999-1.067.253.253 0 1 0-.032.506.555.555 0 0 1 .359.163.562.562 0 0 1-.794.794zM25.913 17.911H28v.508h-2.087v-.508z"/><path fill="#424242" style="fill:var(--color2, #424242)" d="M7.889 7.683h2.009c.21 0 .381.171.381.381v4.419c0 .21-.171.381-.381.381H7.89a.382.382 0 0 1-.381-.381V8.064c0-.21.171-.381.381-.381zm1.628.762H8.27v3.657h1.247V8.445zm.762 8.456v9.749c0 .21-.171.381-.381.381H7.89a.382.382 0 0 1-.381-.381v-9.749c0-.21.171-.381.381-.381h2.008c.21 0 .381.171.381.381zm-.762 9.369v-8.988H8.27v8.988h1.247z"/><path fill="#424242" style="fill:var(--color2, #424242)" d="M24.152 10.163v2.32c0 .21-.171.381-.381.381H4.381A.382.382 0 0 1 4 12.483v-2.32c0-.21.171-.381.381-.381h19.39c.21 0 .381.171.381.381zm-.762 1.939v-1.558H4.762v1.558H23.39z"/><path fill="#424242" style="fill:var(--color2, #424242)" d="M10.139 8.939a.38.38 0 1 0-.482-.586l-2.009 1.654a.38.38 0 1 0 .482.586l2.008-1.654zM11.006 9.947a.38.38 0 1 0-.625.431l1.608 2.32a.38.38 0 1 0 .625-.431l-1.608-2.32z"/><path fill="#424242" style="fill:var(--color2, #424242)" d="M14.223 10.379a.38.38 0 1 0-.625-.431l-1.608 2.32a.38.38 0 1 0 .625.431l1.608-2.32z"/><path fill="#424242" style="fill:var(--color2, #424242)" d="M14.223 9.947a.38.38 0 1 0-.625.431l1.608 2.32a.38.38 0 1 0 .625-.431l-1.608-2.32z"/><path fill="#424242" style="fill:var(--color2, #424242)" d="M17.44 10.379a.38.38 0 1 0-.625-.431l-1.608 2.32a.38.38 0 1 0 .625.431l1.608-2.32z"/><path fill="#424242" style="fill:var(--color2, #424242)" d="M17.44 9.947a.38.38 0 1 0-.625.431l1.608 2.32a.38.38 0 1 0 .625-.431l-1.608-2.32z"/><path fill="#424242" style="fill:var(--color2, #424242)" d="M20.656 10.379a.38.38 0 1 0-.625-.431l-1.608 2.32a.38.38 0 1 0 .625.431l1.608-2.32z"/><path fill="#424242" style="fill:var(--color2, #424242)" d="M20.656 9.947a.38.38 0 1 0-.625.431l1.608 2.32a.38.38 0 1 0 .625-.431l-1.608-2.32z"/><path fill="#424242" style="fill:var(--color2, #424242)" d="M23.873 10.379a.38.38 0 1 0-.625-.431l-1.608 2.32a.38.38 0 1 0 .625.431l1.608-2.32zM9.657 18.864a.38.38 0 1 0 .482-.586l-2.008-1.654a.38.38 0 1 0-.482.586l2.009 1.654z"/><path fill="#424242" style="fill:var(--color2, #424242)" d="M10.139 18.864a.38.38 0 1 0-.482-.586l-2.009 1.654a.38.38 0 1 0 .482.586l2.008-1.654z"/><path fill="#424242" style="fill:var(--color2, #424242)" d="M9.657 22.173a.38.38 0 1 0 .482-.586l-2.008-1.654a.38.38 0 1 0-.482.586l2.009 1.654z"/><path fill="#424242" style="fill:var(--color2, #424242)" d="M10.139 22.173a.38.38 0 1 0-.482-.586l-2.009 1.654a.38.38 0 1 0 .482.586l2.008-1.654z"/><path fill="#424242" style="fill:var(--color2, #424242)" d="M9.657 25.481a.38.38 0 1 0 .482-.586l-2.008-1.654a.38.38 0 1 0-.482.586l2.009 1.654zM9.254 5.545l.992 2.372a.38.38 0 0 1-.358.528H7.894a.382.382 0 0 1-.342-.55l.992-2.37a.381.381 0 0 1 .711.02zM7.789 10.379a.38.38 0 1 0-.625-.431l-1.608 2.32a.38.38 0 1 0 .625.431l1.608-2.32zM23.751 10.942a.382.382 0 0 0 0 .762h1.164a.382.382 0 0 0 0-.762h-1.164z"/><path fill="#424242" style="fill:var(--color2, #424242)" d="M10.121 25.494a.379.379 0 1 0-.447-.613l-2.008 1.463a.379.379 0 1 0 .447.613l2.009-1.463zM4.701 9.958a.38.38 0 0 0-.64.41l1.487 2.32a.38.38 0 0 0 .64-.41l-1.487-2.32zM8.062 15.626v-1.869h1.663v1.869H8.062zm1.836-3.524H6.684a.382.382 0 0 0-.381.381v4.419c0 .21.171.381.381.381h4.419c.21 0 .381-.171.381-.381v-4.419a.382.382 0 0 0-.381-.381H9.898zM26.012 12.547a1.224 1.224 0 1 0 0-2.448 1.224 1.224 0 0 0 0 2.448z"/></symbol><symbol id="icon-Toolbox" viewBox="0 0 32 32"><path fill="#424242" style="fill:var(--color2, #424242)" d="M28 14.034v10.341H8.617V14.034H28zm-10.225 3.455-1.489.031.123 1.037-4.061.084-.011-.096c-.632-.695-1.662.034-2.215.046l.084.706c.553-.011 1.75.672 2.215-.046l-.011-.096 4.061-.084.123 1.037 1.489-.031-.056-.471.873-.018c.163-.078.38-.127.622-.132s.47.035.65.106l.689-.014c.163-.078.38-.127.622-.132s.47.035.65.106l.693-.014c.163-.078.38-.127.622-.132s.47.035.65.106l.265-.005c.334-.007.58-.244.547-.527l-.073-.618c-.033-.283-.334-.509-.669-.502l-.265.006c-.163.078-.38.127-.622.132s-.47-.035-.65-.106l-.693.014c-.163.078-.38.127-.622.132s-.47-.035-.65-.106l-.689.014c-.163.078-.38.127-.622.132s-.47-.035-.65-.106l-.873.018-.056-.471z"/><path fill="#ff7a00" style="fill:var(--color1, #ff7a00)" d="M7.342 9.627h19.383l1.217 4.02H8.617a.205.205 0 0 0-.056.008L7.342 9.627zM4.067 12.765l.978-3.131 1.892-.006 1.187 3.921-4.057-.783z"/><path fill="#424242" style="fill:var(--color2, #424242)" d="M8.23 24.288 4 23.348l.011-10.2 4.219.814v10.326zM8.454 7.25h13.299c.182 0 .334.13.368.303l.475 1.698h-.776L21.47 8H8.94l.35 1.251h-.776l-.427-1.525a.375.375 0 0 1 .367-.476z"/></symbol><symbol id="icon-Under-Construction-Boa" viewBox="0 0 32 32"><path fill="#424242" style="fill:var(--color2, #424242)" d="m4.935 21.577 9.407-15.519c.917-1.512 2.416-1.512 3.333 0l9.407 15.519c2.152 3.55.155 5.499-2.213 5.499H7.264c-2.312 0-4.598-1.756-2.329-5.499zM16.008 6.425c-.127.034-.326.315-.384.411L6.217 22.355c-.376.62-1.108 2.025-.463 2.708.357.379 1.01.513 1.509.513h17.605c.461 0 1.027-.123 1.357-.47.667-.701-.035-2.104-.427-2.751L16.391 6.836c-.058-.096-.257-.376-.384-.411z"/><path fill="#ff7a00" style="fill:var(--color1, #ff7a00)" d="M11.614 16.335c-.697.788-1.141 1.83-1.214 3.113h4.234v-4.759c-1.203.234-2.261.787-3.02 1.646z"/><path fill="#ff7a00" style="fill:var(--color1, #ff7a00)" d="M15.012 14.253v5.572h-5.07v1.464h12.117v-1.464h-5.07v-5.572a.523.523 0 0 0-.521-.521h-.934a.522.522 0 0 0-.521.521z"/><path fill="#ff7a00" style="fill:var(--color1, #ff7a00)" d="M17.366 14.689v4.759H21.6c-.073-1.283-.516-2.324-1.214-3.113-.759-.859-1.817-1.412-3.02-1.646z"/></symbol><symbol id="icon-menu" viewBox="0 0 32 32"><path d="M4.799 8.001a1.6 1.6 0 0 1 1.6-1.6h19.2a1.6 1.6 0 0 1 0 3.2h-19.2a1.6 1.6 0 0 1-1.6-1.6zM4.799 16.001a1.6 1.6 0 0 1 1.6-1.6h19.2a1.6 1.6 0 0 1 0 3.2h-19.2a1.6 1.6 0 0 1-1.6-1.6zM4.799 24.001a1.6 1.6 0 0 1 1.6-1.6h19.2a1.6 1.6 0 0 1 0 3.2h-19.2a1.6 1.6 0 0 1-1.6-1.6z"/></symbol><symbol id="icon-facebook" viewBox="0 0 32 32"><path d="M21.329 5.313h2.921V.225C23.746.156 22.013 0 19.994 0c-4.212 0-7.097 2.649-7.097 7.519V12H8.249v5.688h4.648V32h5.699V17.689h4.46l.708-5.688h-5.169V8.082c.001-1.644.444-2.769 2.735-2.769z"/></symbol><symbol id="icon-instagram" viewBox="0 0 32 32"><path d="M31.969 9.408c-.075-1.7-.35-2.869-.744-3.882a7.793 7.793 0 0 0-1.851-2.838A7.867 7.867 0 0 0 26.542.844C25.523.45 24.361.175 22.66.1 20.947.019 20.403 0 16.059 0s-4.888.019-6.595.094c-1.7.075-2.869.35-3.882.744a7.803 7.803 0 0 0-2.838 1.85A7.867 7.867 0 0 0 .9 5.52C.506 6.539.231 7.702.156 9.402c-.081 1.713-.1 2.257-.1 6.601s.019 4.888.094 6.595c.075 1.7.35 2.869.744 3.882a7.895 7.895 0 0 0 1.85 2.838 7.867 7.867 0 0 0 2.832 1.844c1.019.394 2.182.669 3.882.744 1.706.075 2.25.094 6.595.094s4.888-.019 6.595-.094c1.7-.075 2.869-.35 3.882-.744a8.181 8.181 0 0 0 4.682-4.682c.394-1.019.669-2.182.744-3.882.075-1.707.094-2.25.094-6.595s-.006-4.888-.081-6.595zm-2.882 13.065c-.069 1.563-.331 2.407-.55 2.969a5.31 5.31 0 0 1-3.038 3.038c-.563.219-1.413.481-2.969.55-1.688.075-2.194.094-6.464.094s-4.782-.019-6.464-.094c-1.563-.069-2.407-.331-2.969-.55a4.926 4.926 0 0 1-1.838-1.194 4.974 4.974 0 0 1-1.194-1.838c-.219-.563-.481-1.413-.55-2.969-.075-1.688-.094-2.194-.094-6.464s.019-4.782.094-6.464c.069-1.563.331-2.407.55-2.969a4.868 4.868 0 0 1 1.2-1.838A4.974 4.974 0 0 1 6.639 3.55c.563-.219 1.413-.481 2.969-.55 1.688-.075 2.194-.094 6.464-.094 4.276 0 4.782.019 6.464.094 1.563.069 2.407.331 2.969.55a4.914 4.914 0 0 1 1.838 1.194 4.974 4.974 0 0 1 1.194 1.838c.219.563.481 1.413.55 2.969.075 1.688.094 2.194.094 6.464s-.019 4.77-.094 6.458z"/><path d="M16.059 7.783c-4.538 0-8.22 3.682-8.22 8.22s3.682 8.22 8.22 8.22c4.539 0 8.22-3.682 8.22-8.22s-3.682-8.22-8.22-8.22zm0 13.552a5.333 5.333 0 0 1 0-10.664 5.332 5.332 0 0 1 0 10.664zM26.524 7.458a1.919 1.919 0 1 1-3.838 0 1.919 1.919 0 0 1 3.838 0z"/></symbol></defs></svg>