<svg aria-hidden="true" style="position: absolute; width: 0; height: 0; overflow: hidden;" version="1.1" xmlns="http://www.w3.org/2000/svg" xmlns:xlink="http://www.w3.org/1999/xlink">
<defs>
<symbol id="icon-Building" viewBox="0 0 32 32">
<path fill="#ff7a00" style="fill: var(--color1, #ff7a00)" d="M7.062 16.628l-0 11.372h2.723v-3.499h3.302v3.499h2.723v-14.871l-8.748 3.499zM8.592 18.020h1.312v0.656h-1.312v-0.656zM10.78 18.020h1.312v0.656h-1.312v-0.656zM12.968 18.020h1.312v0.656h-1.312v-0.656zM8.592 20.058h1.312v0.656h-1.312v-0.656zM10.78 20.058h1.312v0.656h-1.312v-0.656zM12.968 20.058h1.312v0.656h-1.312v-0.656zM8.592 22.095h1.312v0.656h-1.312v-0.656zM10.78 22.095h1.312v0.656h-1.312v-0.656zM12.968 22.095h1.312v0.656h-1.312v-0.656zM12.968 15.982h1.312v0.656h-1.312v-0.656z"></path>
<path fill="#424242" style="fill: var(--color2, #424242)" d="M24.938 10.504h-8.748v17.496h2.723v-4.811h3.302v4.811h2.723l-0-17.496zM17.721 12.691h1.312v0.656h-1.312v-0.656zM19.909 12.691h1.312v0.656h-1.312v-0.656zM22.097 12.691h1.312v0.656h-1.312v-0.656zM17.721 15.285h1.312v0.656h-1.312v-0.656zM19.909 15.285h1.312v0.656h-1.312v-0.656zM22.097 15.285h1.312v0.656h-1.312v-0.656zM17.721 17.878h1.312v0.656h-1.312v-0.656zM19.909 17.878h1.312v0.656h-1.312v-0.656zM22.097 17.878h1.312v0.656h-1.312v-0.656zM17.721 20.472h1.312v0.656h-1.312v-0.656zM19.909 20.472h1.312v0.656h-1.312v-0.656zM22.097 20.472h1.312v0.656h-1.312v-0.656z"></path>
<path fill="#424242" style="fill: var(--color2, #424242)" d="M22.751 7.88h-4.374v2.909h4.374v-2.909z"></path>
<path fill="#424242" style="fill: var(--color2, #424242)" d="M20.945 6.362c0-0.14-0.113-0.253-0.253-0.253s-0.253 0.113-0.253 0.253l-0 1.518c0 0.14 0.113 0.253 0.253 0.253s0.253-0.113 0.253-0.253l0-1.518z"></path>
<path fill="#424242" style="fill: var(--color2, #424242)" d="M18.38 5.075l1.983-1.020c0.058-0.035 0.125-0.055 0.198-0.056 0.21-0 0.381 0.17 0.381 0.38l0.001 1.947c0.006 0.065-0.005 0.133-0.035 0.197-0.090 0.19-0.317 0.272-0.507 0.182l-1.987-0.939c-0.083-0.033-0.155-0.095-0.199-0.18-0.096-0.187-0.022-0.416 0.165-0.512z"></path>
</symbol>
<symbol id="icon-Construction-Worker" viewBox="0 0 31 32">
<path fill="#ff7a00" style="fill: var(--color1, #ff7a00)" d="M9.272 14.986l-0.522 0.296c-1.105 0.192-2.216 1.421-3.225 1.73-1.669-2.269-1.945-5.341-0.791-9.249 4.038 0.895 6.486 2.688 7.669 5.245-0.819 0.718-2.4 1.108-3.131 1.978z"></path>
<path fill="#ff7a00" style="fill: var(--color1, #ff7a00)" d="M15.475 27.426c0.141 0.245 0.452 0.329 0.695 0.187s0.326-0.456 0.185-0.701l-8.272-14.448c-0.141-0.245-0.452-0.329-0.695-0.187s-0.326 0.456-0.185 0.701l8.272 14.448z"></path>
<path fill="#424242" style="fill: var(--color2, #424242)" d="M12.619 27.029h-2.639v-4.596c0-1.092 0.259-1.891 0.748-2.547l4.090 7.143h-2.198zM22.227 17.050l0.527 0.276c0.434 0.226 0.86 0.449 1.266 0.678l0.527 0.308c1.587 0.967 2.766 2.111 2.766 4.122v4.596h-10.527c-0.016-0.105-0.052-0.208-0.107-0.305l-4.609-8.050c0.174-0.116 0.357-0.23 0.55-0.344l0.527-0.298c0.39-0.213 0.813-0.429 1.266-0.66l0.527-0.268c0.204-0.104 0.413-0.211 0.628-0.322 0.853 0.775 1.921 1.236 3.079 1.236s2.226-0.461 3.079-1.236c0.167 0.091 0.334 0.18 0.501 0.267z"></path>
<path fill="#424242" style="fill: var(--color2, #424242)" d="M24.641 9.619h-11.989v1.46h11.989v-1.46z"></path>
<path fill="#424242" style="fill: var(--color2, #424242)" d="M17.273 9.22v-4.341c-1.073 0.232-2.016 0.744-2.702 1.526-0.632 0.72-1.041 1.662-1.128 2.815h3.83zM23.85 9.22c-0.087-1.153-0.496-2.095-1.128-2.815-0.686-0.782-1.629-1.294-2.702-1.526v4.341h3.83z"></path>
<path fill="#424242" style="fill: var(--color2, #424242)" d="M23.545 11.129c0.027-0.217-0.125-0.416-0.341-0.444s-0.413 0.127-0.44 0.344c-0.169 1.348-0.75 2.81-1.592 3.879-0.7 0.888-1.575 1.492-2.525 1.492-0.957 0-1.855-0.612-2.576-1.511-0.857-1.068-1.455-2.521-1.623-3.86-0.027-0.218-0.224-0.372-0.44-0.344s-0.368 0.226-0.341 0.444c0.186 1.48 0.845 3.085 1.79 4.262 0.862 1.075 1.969 1.807 3.191 1.807 1.217 0 2.301-0.726 3.143-1.794 0.929-1.179 1.569-2.79 1.756-4.274z"></path>
<path fill="#424242" style="fill: var(--color2, #424242)" d="M18.184 3.954h0.924c0.284 0 0.516 0.238 0.516 0.53v5.239h-1.956v-5.239c0-0.291 0.232-0.53 0.516-0.53z"></path>
</symbol>
<symbol id="icon-Crane" viewBox="0 0 32 32">
<path fill="#ff7a00" style="fill: var(--color1, #ff7a00)" d="M4.196 9.99c-0.096 0.102-0.091 0.262 0.011 0.358s0.262 0.091 0.358-0.011l4.376-4.488 17.101 4.723c0.134 0.040 0.275-0.036 0.315-0.171s-0.036-0.275-0.171-0.315l-17.25-4.767c-0.099-0.029-0.202 0.004-0.265 0.078l-4.475 4.594z"></path>
<path fill="#ff7a00" style="fill: var(--color1, #ff7a00)" d="M27.211 11.656c0-0.14-0.114-0.254-0.254-0.254s-0.254 0.114-0.254 0.254v7.043c0 0.14 0.114 0.254 0.254 0.254s0.254-0.114 0.254-0.254v-7.043z"></path>
<path fill="#ff7a00" style="fill: var(--color1, #ff7a00)" d="M26.506 19.909c-0.099-0.099-0.26-0.099-0.359 0s-0.099 0.26 0 0.359c0.209 0.209 0.482 0.313 0.756 0.313s0.547-0.104 0.756-0.313c0.209-0.209 0.313-0.482 0.313-0.756s-0.104-0.547-0.313-0.756c-0.091-0.091-0.198-0.164-0.315-0.218-0.116-0.052-0.241-0.084-0.371-0.093-0.14-0.009-0.26 0.097-0.269 0.237s0.097 0.26 0.237 0.269c0.067 0.004 0.133 0.021 0.195 0.049 0.060 0.027 0.116 0.066 0.164 0.114 0.11 0.11 0.164 0.253 0.164 0.397s-0.055 0.287-0.164 0.397c-0.11 0.11-0.253 0.164-0.397 0.164s-0.287-0.055-0.397-0.164z"></path>
<path fill="#ff7a00" style="fill: var(--color1, #ff7a00)" d="M25.913 17.911h2.087v0.508h-2.087v-0.508z"></path>
<path fill="#424242" style="fill: var(--color2, #424242)" d="M7.889 7.683h2.009c0.21 0 0.381 0.171 0.381 0.381v4.419c0 0.21-0.171 0.381-0.381 0.381h-2.008c-0.21 0-0.381-0.171-0.381-0.381v-4.419c0-0.21 0.171-0.381 0.381-0.381zM9.517 8.445h-1.247v3.657h1.247v-3.657zM10.279 16.901v9.749c0 0.21-0.171 0.381-0.381 0.381h-2.008c-0.21 0-0.381-0.171-0.381-0.381v-9.749c0-0.21 0.171-0.381 0.381-0.381h2.008c0.21 0 0.381 0.171 0.381 0.381zM9.517 26.27v-8.988h-1.247v8.988h1.247z"></path>
<path fill="#424242" style="fill: var(--color2, #424242)" d="M24.152 10.163v2.32c0 0.21-0.171 0.381-0.381 0.381h-19.39c-0.21 0-0.381-0.171-0.381-0.381v-2.32c0-0.21 0.171-0.381 0.381-0.381h19.39c0.21 0 0.381 0.171 0.381 0.381zM23.39 12.102v-1.558h-18.628v1.558h18.628z"></path>
<path fill="#424242" style="fill: var(--color2, #424242)" d="M10.139 8.939c0.162-0.133 0.185-0.372 0.052-0.534s-0.372-0.185-0.534-0.052l-2.009 1.654c-0.162 0.133-0.185 0.372-0.052 0.534s0.372 0.185 0.534 0.052l2.008-1.654z"></path>
<path fill="#424242" style="fill: var(--color2, #424242)" d="M11.006 9.947c-0.119-0.173-0.356-0.216-0.528-0.097s-0.216 0.356-0.097 0.528l1.608 2.32c0.119 0.173 0.356 0.216 0.528 0.097s0.216-0.356 0.097-0.528l-1.608-2.32z"></path>
<path fill="#424242" style="fill: var(--color2, #424242)" d="M14.223 10.379c0.119-0.173 0.076-0.409-0.097-0.528s-0.409-0.076-0.528 0.097l-1.608 2.32c-0.119 0.173-0.076 0.409 0.097 0.528s0.409 0.076 0.528-0.097l1.608-2.32z"></path>
<path fill="#424242" style="fill: var(--color2, #424242)" d="M14.223 9.947c-0.119-0.173-0.356-0.216-0.528-0.097s-0.216 0.356-0.097 0.528l1.608 2.32c0.119 0.173 0.356 0.216 0.528 0.097s0.216-0.356 0.097-0.528l-1.608-2.32z"></path>
<path fill="#424242" style="fill: var(--color2, #424242)" d="M17.44 10.379c0.119-0.173 0.076-0.409-0.097-0.528s-0.409-0.076-0.528 0.097l-1.608 2.32c-0.119 0.173-0.076 0.409 0.097 0.528s0.409 0.076 0.528-0.097l1.608-2.32z"></path>
<path fill="#424242" style="fill: var(--color2, #424242)" d="M17.44 9.947c-0.119-0.173-0.356-0.216-0.528-0.097s-0.216 0.356-0.097 0.528l1.608 2.32c0.119 0.173 0.356 0.216 0.528 0.097s0.216-0.356 0.097-0.528l-1.608-2.32z"></path>
<path fill="#424242" style="fill: var(--color2, #424242)" d="M20.656 10.379c0.119-0.173 0.076-0.409-0.097-0.528s-0.409-0.076-0.528 0.097l-1.608 2.32c-0.119 0.173-0.076 0.409 0.097 0.528s0.409 0.076 0.528-0.097l1.608-2.32z"></path>
<path fill="#424242" style="fill: var(--color2, #424242)" d="M20.656 9.947c-0.119-0.173-0.356-0.216-0.528-0.097s-0.216 0.356-0.097 0.528l1.608 2.32c0.119 0.173 0.356 0.216 0.528 0.097s0.216-0.356 0.097-0.528l-1.608-2.32z"></path>
<path fill="#424242" style="fill: var(--color2, #424242)" d="M23.873 10.379c0.119-0.173 0.076-0.409-0.097-0.528s-0.409-0.076-0.528 0.097l-1.608 2.32c-0.119 0.173-0.076 0.409 0.097 0.528s0.409 0.076 0.528-0.097l1.608-2.32z"></path>
<path fill="#424242" style="fill: var(--color2, #424242)" d="M9.657 18.864c0.162 0.133 0.401 0.11 0.534-0.052s0.11-0.401-0.052-0.534l-2.008-1.654c-0.162-0.133-0.401-0.11-0.534 0.052s-0.11 0.401 0.052 0.534l2.009 1.654z"></path>
<path fill="#424242" style="fill: var(--color2, #424242)" d="M10.139 18.864c0.162-0.133 0.185-0.372 0.052-0.534s-0.372-0.185-0.534-0.052l-2.009 1.654c-0.162 0.133-0.185 0.372-0.052 0.534s0.372 0.185 0.534 0.052l2.008-1.654z"></path>
<path fill="#424242" style="fill: var(--color2, #424242)" d="M9.657 22.173c0.162 0.133 0.401 0.11 0.534-0.052s0.11-0.401-0.052-0.534l-2.008-1.654c-0.162-0.133-0.401-0.11-0.534 0.052s-0.11 0.401 0.052 0.534l2.009 1.654z"></path>
<path fill="#424242" style="fill: var(--color2, #424242)" d="M10.139 22.173c0.162-0.133 0.185-0.372 0.052-0.534s-0.372-0.185-0.534-0.052l-2.009 1.654c-0.162 0.133-0.185 0.372-0.052 0.534s0.372 0.185 0.534 0.052l2.008-1.654z"></path>
<path fill="#424242" style="fill: var(--color2, #424242)" d="M9.657 25.481c0.162 0.133 0.401 0.11 0.534-0.052s0.11-0.401-0.052-0.534l-2.008-1.654c-0.162-0.133-0.401-0.11-0.534 0.052s-0.11 0.401 0.052 0.534l2.009 1.654z"></path>
<path fill="#424242" style="fill: var(--color2, #424242)" d="M9.254 5.545l0.992 2.372c0.081 0.194-0.010 0.417-0.204 0.498-0.050 0.021-0.103 0.030-0.154 0.030h-1.994c-0.21 0-0.381-0.171-0.381-0.381 0-0.061 0.014-0.118 0.039-0.169l0.992-2.37c0.081-0.194 0.304-0.287 0.498-0.206 0.104 0.043 0.178 0.127 0.213 0.226z"></path>
<path fill="#424242" style="fill: var(--color2, #424242)" d="M7.789 10.379c0.119-0.173 0.076-0.409-0.097-0.528s-0.409-0.076-0.528 0.097l-1.608 2.32c-0.119 0.173-0.076 0.409 0.097 0.528s0.409 0.076 0.528-0.097l1.608-2.32z"></path>
<path fill="#424242" style="fill: var(--color2, #424242)" d="M23.751 10.942c-0.21 0-0.381 0.171-0.381 0.381s0.171 0.381 0.381 0.381h1.164c0.21 0 0.381-0.171 0.381-0.381s-0.171-0.381-0.381-0.381h-1.164z"></path>
<path fill="#424242" style="fill: var(--color2, #424242)" d="M10.121 25.494c0.169-0.123 0.207-0.36 0.083-0.53s-0.36-0.207-0.53-0.083l-2.008 1.463c-0.169 0.123-0.207 0.36-0.083 0.53s0.36 0.207 0.53 0.083l2.009-1.463z"></path>
<path fill="#424242" style="fill: var(--color2, #424242)" d="M4.701 9.958c-0.113-0.177-0.349-0.228-0.525-0.115s-0.228 0.349-0.115 0.525l1.487 2.32c0.113 0.177 0.349 0.228 0.525 0.115s0.228-0.349 0.115-0.525l-1.487-2.32z"></path>
<path fill="#424242" style="fill: var(--color2, #424242)" d="M8.062 15.626v-1.869h1.663v1.869h-1.663zM9.898 12.102h-3.214c-0.21 0-0.381 0.171-0.381 0.381v4.419c0 0.21 0.171 0.381 0.381 0.381h4.419c0.21 0 0.381-0.171 0.381-0.381v-4.419c0-0.21-0.171-0.381-0.381-0.381h-1.205z"></path>
<path fill="#424242" style="fill: var(--color2, #424242)" d="M26.012 12.547c0.676 0 1.224-0.548 1.224-1.224s-0.548-1.224-1.224-1.224c-0.676 0-1.224 0.548-1.224 1.224s0.548 1.224 1.224 1.224z"></path>
</symbol>
<symbol id="icon-Toolbox" viewBox="0 0 32 32">
<path fill="#424242" style="fill: var(--color2, #424242)" d="M28 14.034v10.341h-19.383v-10.341h19.383zM17.775 17.489l-1.489 0.031 0.123 1.037-4.061 0.084-0.011-0.096c-0.632-0.695-1.662 0.034-2.215 0.046l0.084 0.706c0.553-0.011 1.75 0.672 2.215-0.046l-0.011-0.096 4.061-0.084 0.123 1.037 1.489-0.031-0.056-0.471 0.873-0.018c0.163-0.078 0.38-0.127 0.622-0.132s0.47 0.035 0.65 0.106l0.689-0.014c0.163-0.078 0.38-0.127 0.622-0.132s0.47 0.035 0.65 0.106l0.693-0.014c0.163-0.078 0.38-0.127 0.622-0.132s0.47 0.035 0.65 0.106l0.265-0.005c0.334-0.007 0.58-0.244 0.547-0.527l-0.073-0.618c-0.033-0.283-0.334-0.509-0.669-0.502l-0.265 0.006c-0.163 0.078-0.38 0.127-0.622 0.132s-0.47-0.035-0.65-0.106l-0.693 0.014c-0.163 0.078-0.38 0.127-0.622 0.132s-0.47-0.035-0.65-0.106l-0.689 0.014c-0.163 0.078-0.38 0.127-0.622 0.132s-0.47-0.035-0.65-0.106l-0.873 0.018-0.056-0.471z"></path>
<path fill="#ff7a00" style="fill: var(--color1, #ff7a00)" d="M7.342 9.627h19.383l1.217 4.020h-19.325c-0.020 0-0.038 0.003-0.056 0.008l-1.219-4.028z"></path>
<path fill="#ff7a00" style="fill: var(--color1, #ff7a00)" d="M4.067 12.765l0.978-3.131 1.892-0.006 1.187 3.921-4.057-0.783z"></path>
<path fill="#424242" style="fill: var(--color2, #424242)" d="M8.23 24.288l-4.23-0.94 0.011-10.2 4.219 0.814v10.326z"></path>
<path fill="#424242" style="fill: var(--color2, #424242)" d="M8.454 7.25h13.299c0.182 0 0.334 0.13 0.368 0.303l0.475 1.698h-0.776l-0.35-1.251h-12.53l0.35 1.251h-0.776l-0.427-1.525c-0.056-0.199 0.060-0.406 0.259-0.462 0.036-0.010 0.073-0.015 0.108-0.014z"></path>
</symbol>
<symbol id="icon-Under-Construction-Boa" viewBox="0 0 32 32">
<path fill="#424242" style="fill: var(--color2, #424242)" d="M4.935 21.577l9.407-15.519c0.917-1.512 2.416-1.512 3.333 0l9.407 15.519c2.152 3.55 0.155 5.499-2.213 5.499h-17.605c-2.312 0-4.598-1.756-2.329-5.499zM16.008 6.425c-0.127 0.034-0.326 0.315-0.384 0.411l-9.407 15.519c-0.376 0.62-1.108 2.025-0.463 2.708 0.357 0.379 1.010 0.513 1.509 0.513h17.605c0.461 0 1.027-0.123 1.357-0.47 0.667-0.701-0.035-2.104-0.427-2.751l-9.407-15.519c-0.058-0.096-0.257-0.376-0.384-0.411z"></path>
<path fill="#ff7a00" style="fill: var(--color1, #ff7a00)" d="M11.614 16.335c-0.697 0.788-1.141 1.83-1.214 3.113h4.234v-4.759c-1.203 0.234-2.261 0.787-3.020 1.646z"></path>
<path fill="#ff7a00" style="fill: var(--color1, #ff7a00)" d="M15.012 14.253v5.572h-5.070v1.464h12.117v-1.464h-5.070v-5.572c0-0.287-0.235-0.521-0.521-0.521h-0.934c-0.287 0-0.521 0.234-0.521 0.521z"></path>
<path fill="#ff7a00" style="fill: var(--color1, #ff7a00)" d="M17.366 14.689v4.759h4.234c-0.073-1.283-0.516-2.324-1.214-3.113-0.759-0.859-1.817-1.412-3.020-1.646z"></path>
</symbol>
<symbol id="icon-menu" viewBox="0 0 32 32">
<path d="M4.799 8.001c0-0.424 0.169-0.831 0.469-1.131s0.707-0.469 1.131-0.469h19.2c0.424 0 0.831 0.169 1.131 0.469s0.469 0.707 0.469 1.131-0.169 0.831-0.469 1.131c-0.3 0.3-0.707 0.469-1.131 0.469h-19.2c-0.424 0-0.831-0.169-1.131-0.469s-0.469-0.707-0.469-1.131z"></path>
<path d="M4.799 16.001c0-0.424 0.169-0.831 0.469-1.131s0.707-0.469 1.131-0.469h19.2c0.424 0 0.831 0.169 1.131 0.469s0.469 0.707 0.469 1.131c0 0.424-0.169 0.831-0.469 1.131s-0.707 0.469-1.131 0.469h-19.2c-0.424 0-0.831-0.169-1.131-0.469s-0.469-0.707-0.469-1.131z"></path>
<path d="M4.799 24.001c0-0.424 0.169-0.831 0.469-1.131s0.707-0.469 1.131-0.469h19.2c0.424 0 0.831 0.169 1.131 0.469s0.469 0.707 0.469 1.131c0 0.424-0.169 0.831-0.469 1.131s-0.707 0.469-1.131 0.469h-19.2c-0.424 0-0.831-0.169-1.131-0.469s-0.469-0.707-0.469-1.131z"></path>
</symbol>
<symbol id="icon-facebook" viewBox="0 0 32 32">
<path d="M21.329 5.313h2.921v-5.088c-0.504-0.069-2.237-0.225-4.256-0.225-4.212 0-7.097 2.649-7.097 7.519v4.481h-4.648v5.688h4.648v14.312h5.699v-14.311h4.46l0.708-5.688h-5.169v-3.919c0.001-1.644 0.444-2.769 2.735-2.769z"></path>
</symbol>
<symbol id="icon-instagram" viewBox="0 0 32 32">
<path d="M31.969 9.408c-0.075-1.7-0.35-2.869-0.744-3.882-0.406-1.075-1.031-2.038-1.851-2.838-0.8-0.813-1.769-1.444-2.832-1.844-1.019-0.394-2.181-0.669-3.882-0.744-1.713-0.081-2.257-0.1-6.601-0.1s-4.888 0.019-6.595 0.094c-1.7 0.075-2.869 0.35-3.882 0.744-1.075 0.406-2.038 1.031-2.838 1.85-0.813 0.8-1.444 1.769-1.844 2.832-0.394 1.019-0.669 2.182-0.744 3.882-0.081 1.713-0.1 2.257-0.1 6.601s0.019 4.888 0.094 6.595c0.075 1.7 0.35 2.869 0.744 3.882 0.406 1.075 1.038 2.038 1.85 2.838 0.8 0.813 1.769 1.444 2.832 1.844 1.019 0.394 2.182 0.669 3.882 0.744 1.706 0.075 2.25 0.094 6.595 0.094s4.888-0.019 6.595-0.094c1.7-0.075 2.869-0.35 3.882-0.744 2.151-0.831 3.851-2.532 4.682-4.682 0.394-1.019 0.669-2.182 0.744-3.882 0.075-1.707 0.094-2.25 0.094-6.595s-0.006-4.888-0.081-6.595zM29.087 22.473c-0.069 1.563-0.331 2.407-0.55 2.969-0.538 1.394-1.644 2.5-3.038 3.038-0.563 0.219-1.413 0.481-2.969 0.55-1.688 0.075-2.194 0.094-6.464 0.094s-4.782-0.019-6.464-0.094c-1.563-0.069-2.407-0.331-2.969-0.55-0.694-0.256-1.325-0.663-1.838-1.194-0.531-0.519-0.938-1.144-1.194-1.838-0.219-0.563-0.481-1.413-0.55-2.969-0.075-1.688-0.094-2.194-0.094-6.464s0.019-4.782 0.094-6.464c0.069-1.563 0.331-2.407 0.55-2.969 0.256-0.694 0.663-1.325 1.2-1.838 0.519-0.531 1.144-0.938 1.838-1.194 0.563-0.219 1.413-0.481 2.969-0.55 1.688-0.075 2.194-0.094 6.464-0.094 4.276 0 4.782 0.019 6.464 0.094 1.563 0.069 2.407 0.331 2.969 0.55 0.694 0.256 1.325 0.662 1.838 1.194 0.531 0.519 0.938 1.144 1.194 1.838 0.219 0.563 0.481 1.413 0.55 2.969 0.075 1.688 0.094 2.194 0.094 6.464s-0.019 4.77-0.094 6.458z"></path>
<path d="M16.059 7.783c-4.538 0-8.22 3.682-8.22 8.22s3.682 8.22 8.22 8.22c4.539 0 8.22-3.682 8.22-8.22s-3.682-8.22-8.22-8.22zM16.059 21.335c-2.944 0-5.332-2.388-5.332-5.332s2.388-5.332 5.332-5.332c2.945 0 5.332 2.388 5.332 5.332s-2.388 5.332-5.332 5.332z"></path>
<path d="M26.524 7.458c0 1.060-0.859 1.919-1.919 1.919s-1.919-0.859-1.919-1.919c0-1.060 0.859-1.919 1.919-1.919s1.919 0.859 1.919 1.919z"></path>
</symbol>
</defs>
</svg>
