<svg width="50" height="50" viewBox="0 0 50 50" fill="none" xmlns="http://www.w3.org/2000/svg">
<g clip-path="url(#clip0_25_184)">
<path fill-rule="evenodd" clip-rule="evenodd" d="M43.75 21.9277V38.0853H13.4637V21.9277H43.75ZM27.7737 27.3261L25.4472 27.3741L25.6388 28.9942L19.2929 29.1249L19.2752 28.9757C18.2875 27.8902 16.6782 29.0291 15.8137 29.047L15.9442 30.15C16.8087 30.1322 18.6789 31.1995 19.4057 30.0787L19.388 29.9294L25.734 29.7986L25.9256 31.4187L28.2521 31.3708L28.1651 30.6354L29.5285 30.6073C29.7827 30.486 30.1215 30.4089 30.5008 30.4011C30.8801 30.3932 31.2354 30.456 31.517 30.5663L32.5933 30.5442C32.8475 30.4228 33.1863 30.3457 33.5656 30.3379C33.9449 30.3301 34.3002 30.3929 34.5818 30.5032L35.6641 30.4809C35.9183 30.3595 36.2571 30.2824 36.6364 30.2746C37.0157 30.2668 37.3711 30.3296 37.6527 30.4399L38.0666 30.4314C38.5889 30.4207 38.9733 30.0499 38.921 29.6075L38.8068 28.6423C38.7545 28.1999 38.2844 27.8467 37.7622 27.8575L37.3482 27.8661C37.094 27.9874 36.7552 28.0645 36.3759 28.0723C35.9966 28.0801 35.6413 28.0173 35.3597 27.907L34.2774 27.9293C34.0232 28.0507 33.6844 28.1278 33.3051 28.1356C32.9258 28.1434 32.5705 28.0806 32.2889 27.9703L31.2126 27.9925C30.9584 28.1138 30.6196 28.1909 30.2403 28.1987C29.861 28.2066 29.5057 28.1437 29.2241 28.0334L27.8606 28.0615L27.7737 27.3261Z" fill="#424242"/>
<path fill-rule="evenodd" clip-rule="evenodd" d="M11.4712 15.0414H41.7575L43.6588 21.323H13.4638C13.4333 21.323 13.404 21.3275 13.3763 21.3359L11.4712 15.0414Z" fill="#FF7A00"/>
<path fill-rule="evenodd" clip-rule="evenodd" d="M6.35461 19.9456L7.88337 15.0527L10.8399 15.0433L12.694 21.1693L6.35461 19.9456Z" fill="#FF7A00"/>
<path fill-rule="evenodd" clip-rule="evenodd" d="M12.8589 37.9508L6.25 36.4818L6.26684 20.5436L12.8589 21.8161V37.9508Z" fill="#424242"/>
<path d="M13.2087 11.3288H33.9886C34.2736 11.3288 34.5111 11.5325 34.5637 11.8021L35.3062 14.4554H34.093L33.546 12.5007H13.9677L14.5147 14.4554H13.3015L12.6346 12.0722C12.5474 11.7606 12.7276 11.4377 13.0393 11.3505C13.0959 11.3347 13.1528 11.3278 13.2087 11.3288Z" fill="#424242"/>
</g>
<defs>
<clipPath id="clip0_25_184">
<rect width="50" height="50" fill="white"/>
</clipPath>
</defs>
</svg>
