<svg width="50" height="50" viewBox="0 0 50 50" fill="none" xmlns="http://www.w3.org/2000/svg">
<g clip-path="url(#clip0_25_222)">
<path fill-rule="evenodd" clip-rule="evenodd" d="M7.71148 33.714L22.4093 9.46624C23.8415 7.10354 26.185 7.10354 27.6171 9.46624L42.315 33.714C45.6768 39.2601 42.5575 42.3057 38.857 42.3057H11.3499C7.73725 42.3057 4.16629 39.5627 7.71148 33.714ZM25.0132 10.0397C24.8149 10.0933 24.5041 10.5317 24.4136 10.6812L9.71575 34.929C9.129 35.897 7.98498 38.0928 8.99192 39.1598C9.55026 39.7513 10.57 39.962 11.3499 39.962H38.857C39.578 39.962 40.4613 39.7705 40.9777 39.2272C42.0193 38.1314 40.9236 35.94 40.3108 34.929L25.6129 10.6812C25.5223 10.5317 25.2116 10.0933 25.0132 10.0397Z" fill="#424242"/>
<path fill-rule="evenodd" clip-rule="evenodd" d="M18.147 25.5232C17.0574 26.755 16.3641 28.3821 16.2506 30.3868H22.8659V22.9515C20.9858 23.3176 19.3337 24.1816 18.147 25.5232Z" fill="#FF7A00"/>
<path fill-rule="evenodd" clip-rule="evenodd" d="M23.4558 22.2703V30.9768H15.5336V33.2637H34.4665V30.9768H26.5443V22.2703C26.5443 21.8224 26.1779 21.4561 25.73 21.4561H24.2701C23.8223 21.4561 23.4558 21.8224 23.4558 22.2703Z" fill="#FF7A00"/>
<path fill-rule="evenodd" clip-rule="evenodd" d="M27.1342 22.9515V30.3869H33.7494C33.6359 28.3821 32.9427 26.755 31.853 25.5232C30.6663 24.1817 29.0143 23.3176 27.1342 22.9515Z" fill="#FF7A00"/>
</g>
<defs>
<clipPath id="clip0_25_222">
<rect width="50" height="50" fill="white"/>
</clipPath>
</defs>
</svg>
